<svg width="1632" height="700" viewBox="0 0 1632 700" fill="none" xmlns="http://www.w3.org/2000/svg">
<g clip-path="url(#clip0_99_4821)">
<rect width="1632" height="700" fill="#FFDADC"></rect>
<path d="M308.897 223.25C232.853 249.23 151.333 267.232 72.2798 254.307C25.0601 246.552 -5.28984 222.185 -17.888 190.896C-30.4035 159.811 -25.8431 120.795 -1.07702 82.404C-0.621008 82.0782 -0.214747 81.698 0.137653 81.2758C0.913178 80.3465 1.28734 79.3753 1.46484 78.8777C1.47393 78.8522 1.48291 78.8268 1.49176 78.8014C1.74553 78.6031 1.98707 78.3859 2.21499 78.1501C3.07964 77.2551 3.54587 76.297 3.81265 75.6334C3.90012 75.4158 3.98408 75.1788 4.05715 74.9605C4.17303 74.8571 4.28551 74.7494 4.39445 74.6376C5.20204 73.8087 5.64164 72.9276 5.88396 72.3658C5.92727 72.2654 5.97229 72.1541 6.01629 72.0413C6.36955 71.7438 6.69792 71.4054 6.99466 71.0248C7.52178 70.3488 7.8721 69.6393 8.10415 68.9635C61.3918 -4.06553 145.911 -67.8624 239.961 -110.582C334.24 -153.405 437.589 -174.819 527.991 -163.474C528.02 -163.459 528.054 -163.442 528.095 -163.422C528.138 -163.4 528.189 -163.375 528.254 -163.343C528.427 -163.257 528.706 -163.12 529.021 -162.988C529.63 -162.734 530.74 -162.337 532.13 -162.401C532.25 -162.406 532.369 -162.415 532.488 -162.427C533.155 -162.119 533.936 -161.915 534.835 -161.906C535.488 -161.899 536.081 -161.999 536.609 -162.161C589.452 -151.547 617.243 -122.582 625.127 -87.5547C633.118 -52.0509 620.965 -9.00343 590.97 29.7304C590.583 29.9521 590.185 30.2345 589.805 30.5952C588.969 31.3902 588.461 32.3199 588.201 33.2664C583.172 38.8957 579.252 43.6151 576.335 47.5656C573.39 51.5545 571.276 55.011 570.151 57.999C569.061 60.8926 568.478 64.5303 570.594 67.6986C572.58 70.6718 575.929 71.6252 578.376 72.0128C581.014 72.4306 584.136 72.4149 587.309 72.2735C589.613 72.1708 592.169 71.9879 594.808 71.7991C595.833 71.7257 596.871 71.6514 597.912 71.5806C605.495 71.0645 613.735 70.6947 621.654 71.7311C654.283 76.7814 671.973 88.7115 680.168 103.282C688.421 117.955 687.852 136.721 680.765 157.166C666.555 198.158 627.297 242.34 593.26 263.376L593.11 263.469L592.966 263.573C526.266 311.627 442.353 351.137 360.377 335.825L360.225 335.796C360.127 335.746 360.058 335.705 359.947 335.64C359.82 335.565 359.638 335.458 359.291 335.265C358.576 334.869 356.831 333.909 354.597 334.065C351.797 333.153 349.082 332.083 346.458 330.83C346.058 330.354 345.597 329.935 345.082 329.58C344.018 328.847 342.948 328.55 342.374 328.408C342.086 328.337 341.78 328.273 341.636 328.242C341.617 328.238 341.598 328.234 341.581 328.23L341.565 328.218L341.118 327.994C323.406 319.098 315.798 304.292 314.128 287.305C312.478 270.519 316.691 251.762 323.026 235.337C323.077 235.283 323.127 235.226 323.178 235.168C324.224 233.949 324.696 232.262 324.299 230.569C324.295 230.551 324.29 230.532 324.286 230.514C324.275 228.919 323.928 227.211 322.878 225.678C321.441 223.581 319.339 222.747 317.671 222.448C316.082 222.163 314.485 222.279 313.242 222.435C312.05 222.586 310.811 222.828 309.777 223.031L309.554 223.075L309.219 223.14L308.897 223.25ZM1.79548 77.8833C1.7956 77.8836 1.79295 77.8907 1.7873 77.9038C1.79257 77.8896 1.79537 77.8831 1.79548 77.8833ZM527.817 -163.555C527.816 -163.555 527.823 -163.553 527.835 -163.547C527.823 -163.552 527.817 -163.555 527.817 -163.555Z" stroke="#FFFDF8" stroke-width="10"></path>
<path d="M325.503 775.19C297.048 856.676 245.237 934.563 169.31 977.879C169.289 977.891 169.268 977.903 169.247 977.915C117.815 1008.26 72.4551 1004.45 41.5485 980.528C10.4028 956.426 -7.36753 910.922 -1.20126 855.348C-1.19678 855.308 -1.19279 855.268 -1.1893 855.227C7.65105 752.828 57.7812 654.382 134.482 585.976C134.526 585.937 134.569 585.898 134.611 585.857C175.763 546.482 231.75 520.265 284.711 518.456C337.359 516.659 387.098 538.915 417.08 596.9C417.825 598.342 419.225 599.333 420.833 599.556C422.441 599.78 424.057 599.208 425.168 598.024C455.891 565.265 500.901 542.469 543.275 540.075C564.398 538.882 584.72 542.761 602.335 552.823C619.913 562.865 635.098 579.235 645.734 603.554C646.321 604.895 647.466 605.912 648.867 606.336C650.268 606.76 651.784 606.549 653.016 605.758C680.812 587.922 701.669 583.562 716.449 586.823C730.925 590.018 740.901 600.849 746.395 616.822C751.918 632.882 752.672 653.664 748.718 675.17C744.772 696.631 736.204 718.429 723.506 736.454C723.392 736.616 723.288 736.784 723.194 736.959C704.592 771.424 667.871 797.732 637.233 801.548C622.123 803.429 609.04 799.82 599.934 789.732C590.689 779.491 584.682 761.642 586.003 733.227C586.117 730.781 584.442 728.612 582.046 728.104C579.651 727.595 577.24 728.896 576.35 731.178C551.204 795.652 508.712 858.911 443.875 886.144L443.852 886.154C424.085 894.573 406.95 896.181 392.582 893.109C378.229 890.04 366.235 882.217 356.855 871.076C338.228 848.951 330.004 813.757 335.147 778.289C335.383 777.826 335.573 777.276 335.653 776.638C335.839 775.166 335.346 773.997 334.905 773.304C334.217 772.22 333.284 771.692 333.109 771.593L333.093 771.584C331.935 770.919 330.559 770.745 329.271 771.101C328.349 771.356 327.528 771.868 326.896 772.566C326.192 773.264 325.695 774.172 325.503 775.19Z" stroke="#FFFDF8" stroke-width="10" stroke-linejoin="round"></path>
<mask id="path-3-inside-1_99_4821" fill="white">
<path fill-rule="evenodd" clip-rule="evenodd" d="M1444.43 649.124C1488.8 664.411 1511.93 713.197 1495.67 757.221L1494.41 760.625L1491.55 768.371C1476.04 810.371 1429.54 831.982 1387.43 816.761C1344.61 801.28 1304.74 778.751 1269.47 750.167C1266.85 793.706 1258.33 836.774 1244.06 878.174C1228.78 922.545 1179.99 945.667 1135.97 929.407L1133.14 928.361C1132.94 928.293 1132.75 928.223 1132.56 928.152C1132.37 928.082 1132.18 928.011 1131.99 927.939L1124.82 925.289C1082.82 909.777 1061.21 863.278 1076.43 821.172C1091.86 778.47 1114.31 738.714 1142.77 703.512C1097.52 702.263 1052.73 693.476 1010.24 677.451C968.352 661.648 947.064 615.001 962.576 573.001L965.437 565.255L966.694 561.851C982.954 517.827 1032.24 495.783 1075.89 513.007C1116.62 529.075 1154.88 550.589 1189.66 576.898C1190.87 531.519 1199.66 486.593 1215.73 443.995C1231.54 402.103 1278.18 380.815 1320.18 396.327L1327.35 398.975C1327.55 399.044 1327.74 399.114 1327.93 399.185C1328.12 399.256 1328.31 399.328 1328.5 399.4L1331.33 400.445C1375.36 416.705 1397.4 465.987 1380.18 509.643C1364.07 550.481 1342.48 588.844 1316.07 623.702C1359.73 626.291 1402.92 634.821 1444.43 649.124Z"></path>
</mask>
<path d="M1495.67 757.221L1486.29 753.756L1486.29 753.756L1495.67 757.221ZM1444.43 649.124L1447.69 639.669L1447.69 639.669L1444.43 649.124ZM1494.41 760.625L1503.79 764.09L1503.79 764.09L1494.41 760.625ZM1491.55 768.371L1482.17 764.906L1482.17 764.906L1491.55 768.371ZM1387.43 816.761L1390.83 807.357L1390.83 807.357L1387.43 816.761ZM1269.47 750.167L1275.76 742.397C1272.85 740.038 1268.86 739.504 1265.43 741.015C1262 742.526 1259.71 745.827 1259.48 749.567L1269.47 750.167ZM1244.06 878.174L1253.52 881.431L1253.52 881.431L1244.06 878.174ZM1135.97 929.407L1132.5 938.788L1135.97 929.407ZM1133.14 928.361L1136.6 918.981C1136.58 918.972 1136.55 918.963 1136.53 918.954L1133.14 928.361ZM1131.99 927.939L1135.53 918.586C1135.51 918.577 1135.48 918.567 1135.46 918.558L1131.99 927.939ZM1124.82 925.289L1128.28 915.909L1128.28 915.909L1124.82 925.289ZM1076.43 821.172L1067.02 817.772L1067.02 817.772L1076.43 821.172ZM1142.77 703.512L1150.55 709.8C1152.94 706.843 1153.45 702.784 1151.86 699.329C1150.27 695.874 1146.85 693.621 1143.05 693.516L1142.77 703.512ZM1010.24 677.451L1006.71 686.807L1006.71 686.807L1010.24 677.451ZM962.576 573.001L971.957 576.465L971.957 576.465L962.576 573.001ZM965.437 565.255L974.818 568.72L974.818 568.72L965.437 565.255ZM966.694 561.851L957.314 558.386L957.314 558.386L966.694 561.851ZM1075.89 513.007L1079.56 503.705L1079.56 503.705L1075.89 513.007ZM1189.66 576.898L1183.63 584.873C1186.62 587.134 1190.62 587.534 1194 585.91C1197.37 584.286 1199.56 580.91 1199.66 577.165L1189.66 576.898ZM1215.73 443.995L1225.09 447.524L1225.09 447.524L1215.73 443.995ZM1320.18 396.327L1323.65 386.947L1323.65 386.947L1320.18 396.327ZM1327.35 398.975L1323.89 408.356C1323.91 408.365 1323.94 408.374 1323.96 408.383L1327.35 398.975ZM1328.5 399.4L1324.96 408.753C1324.99 408.762 1325.01 408.771 1325.04 408.78L1328.5 399.4ZM1331.33 400.445L1334.8 391.065L1331.33 400.445ZM1380.18 509.643L1389.48 513.313L1389.48 513.313L1380.18 509.643ZM1316.07 623.702L1308.1 617.663C1305.87 620.605 1305.44 624.534 1306.99 627.885C1308.53 631.237 1311.79 633.466 1315.48 633.684L1316.07 623.702ZM1505.05 760.685C1523.25 711.4 1497.37 656.784 1447.69 639.669L1441.18 658.578C1480.24 672.039 1500.6 714.993 1486.29 753.756L1505.05 760.685ZM1503.79 764.09L1505.05 760.685L1486.29 753.756L1485.03 757.161L1503.79 764.09ZM1500.93 771.835L1503.79 764.09L1485.03 757.161L1482.17 764.906L1500.93 771.835ZM1384.03 826.165C1431.31 843.255 1483.51 818.991 1500.93 771.835L1482.17 764.906C1468.56 801.751 1427.77 820.709 1390.83 807.357L1384.03 826.165ZM1263.17 757.936C1299.31 787.223 1340.15 810.304 1384.03 826.165L1390.83 807.357C1349.06 792.256 1310.17 770.28 1275.76 742.397L1263.17 757.936ZM1253.52 881.431C1268.08 839.172 1276.78 795.209 1279.45 750.766L1259.48 749.567C1256.92 792.202 1248.58 834.376 1234.61 874.916L1253.52 881.431ZM1132.5 938.788C1181.79 956.991 1236.4 931.105 1253.52 881.431L1234.61 874.916C1221.15 913.984 1178.19 934.343 1139.43 920.027L1132.5 938.788ZM1129.67 937.742L1132.5 938.788L1139.43 920.027L1136.6 918.981L1129.67 937.742ZM1136.53 918.954C1136.36 918.894 1136.19 918.833 1136.03 918.772L1129.1 937.533C1129.31 937.613 1129.53 937.691 1129.75 937.769L1136.53 918.954ZM1136.03 918.772C1135.86 918.71 1135.7 918.648 1135.53 918.586L1128.45 937.292C1128.67 937.373 1128.88 937.454 1129.1 937.533L1136.03 918.772ZM1121.35 934.67L1128.53 937.32L1135.46 918.558L1128.28 915.909L1121.35 934.67ZM1067.02 817.772C1049.93 865.047 1074.2 917.254 1121.35 934.67L1128.28 915.909C1091.44 902.301 1072.48 861.509 1085.83 824.571L1067.02 817.772ZM1135 697.224C1105.83 733.29 1082.84 774.022 1067.02 817.772L1085.83 824.571C1100.89 782.917 1122.78 744.138 1150.55 709.8L1135 697.224ZM1006.71 686.807C1050.24 703.226 1096.14 712.228 1142.5 713.508L1143.05 693.516C1098.91 692.297 1055.21 683.727 1013.77 668.095L1006.71 686.807ZM953.196 569.536C935.779 616.692 959.681 669.065 1006.71 686.807L1013.77 668.095C977.024 654.231 958.349 613.31 971.957 576.465L953.196 569.536ZM956.056 561.791L953.196 569.536L971.957 576.465L974.818 568.72L956.056 561.791ZM957.314 558.386L956.056 561.791L974.818 568.72L976.075 565.315L957.314 558.386ZM1079.56 503.705C1030.69 484.422 975.517 509.1 957.314 558.386L976.075 565.315C990.392 526.553 1033.78 507.144 1072.22 522.309L1079.56 503.705ZM1195.7 568.922C1160.19 542.068 1121.13 520.107 1079.56 503.705L1072.22 522.309C1112.1 538.044 1149.57 559.111 1183.63 584.873L1195.7 568.922ZM1199.66 577.165C1200.84 532.9 1209.42 489.077 1225.09 447.524L1206.38 440.465C1189.91 484.109 1180.91 530.139 1179.67 576.631L1199.66 577.165ZM1225.09 447.524C1238.95 410.775 1279.87 392.1 1316.72 405.708L1323.65 386.947C1276.49 369.53 1224.12 393.432 1206.38 440.465L1225.09 447.524ZM1316.72 405.708L1323.89 408.356L1330.82 389.595L1323.65 386.947L1316.72 405.708ZM1331.39 389.805C1331.18 389.725 1330.96 389.646 1330.74 389.567L1323.96 408.383C1324.13 408.443 1324.3 408.504 1324.46 408.566L1331.39 389.805ZM1332.04 390.047C1331.83 389.965 1331.61 389.885 1331.39 389.805L1324.46 408.566C1324.63 408.628 1324.8 408.69 1324.96 408.753L1332.04 390.047ZM1325.04 408.78L1327.87 409.826L1334.8 391.065L1331.97 390.019L1325.04 408.78ZM1327.87 409.826C1366.63 424.142 1386.04 467.534 1370.88 505.973L1389.48 513.313C1408.76 464.44 1384.08 409.268 1334.8 391.065L1327.87 409.826ZM1370.88 505.973C1355.1 545.963 1333.96 583.529 1308.1 617.663L1324.04 629.741C1351 594.158 1373.03 555 1389.48 513.313L1370.88 505.973ZM1447.69 639.669C1405.32 625.07 1361.23 616.362 1316.66 613.72L1315.48 633.684C1358.23 636.22 1400.53 644.573 1441.18 658.578L1447.69 639.669Z" fill="#FFFDF8" mask="url(#path-3-inside-1_99_4821)"></path>
<path d="M1096.64 -22.4924C1185.15 -99.2127 1303.58 -104.154 1361.64 -37.1663C1419.71 29.8214 1397.99 146.348 1309.48 223.069C1220.96 299.789 1102.54 304.73 1044.47 237.743C986.412 170.755 1008.12 54.2279 1096.64 -22.4924Z" stroke="#FFFDF8" stroke-width="10"></path>
<path d="M701.612 476.926C740.019 476.926 768.882 443.531 786.106 417.142C784.011 422.981 782.847 428.82 782.847 434.423C782.847 449.835 791.693 460.811 809.149 460.811C833.123 460.811 858.729 439.795 871.995 417.142C871.065 420.411 870.598 423.449 870.598 426.25C870.598 436.993 876.649 443.764 888.986 443.764C927.858 443.764 966.963 374.873 966.963 314.624C966.963 267.686 943.22 226.352 883.633 226.352C778.891 226.352 666 354.324 666 436.993C666 469.452 683.458 476.926 701.612 476.926Z" stroke="#FFFCF7" stroke-width="10" stroke-linecap="round" stroke-linejoin="round"></path>
<path d="M847.561 309.486C847.561 297.81 854.077 289.635 863.621 289.635C873.166 289.635 879.449 297.81 879.449 309.486C879.449 321.161 872.932 329.568 863.621 329.568C854.311 329.568 847.561 321.161 847.561 309.486Z" fill="#FFFCF7"></path>
<path d="M897.369 310.559C897.369 298.883 903.886 290.708 913.43 290.708C922.975 290.708 929.257 298.883 929.257 310.559C929.257 322.234 922.741 330.641 913.43 330.641C904.119 330.641 897.369 322.234 897.369 310.559Z" fill="#FFFCF7"></path>
</g>
<defs>
<clipPath id="clip0_99_4821">
<rect width="1632" height="700" fill="white"></rect>
</clipPath>
</defs>
</svg>
